<svg width="803" height="634" viewBox="0 0 803 634" fill="none" xmlns="http://www.w3.org/2000/svg">
<rect width="803" height="634" rx="30" fill="white"/>
<path d="M143.316 562.748H668" stroke="#13283D" stroke-linecap="round" stroke-linejoin="round"/>
<g opacity="0.3">
<path d="M307.013 55.5103C307.013 55.5103 305.121 41.7896 292.816 39.4215C280.511 37.0535 276.251 45.0979 274.835 52.6779C273.419 60.2464 267.731 57.8783 262.055 55.9862C256.378 54.0941 248.798 58.3543 245.49 65.4468C242.182 72.5393 242.182 73.4912 232.709 72.5509C223.249 71.599 220.405 72.075 217.561 77.7513C214.717 83.4277 214.961 82.7196 214.961 82.7196H335.174C335.174 82.7196 335.882 70.1829 330.206 65.9227C324.529 61.6626 316.485 66.3986 312.225 64.0306C307.964 61.6626 307.024 55.5103 307.024 55.5103H307.013Z" stroke="#13283D" stroke-miterlimit="10"/>
</g>
<g opacity="0.3">
<path d="M547.45 91.4265C547.45 91.4265 546.475 84.392 540.172 83.1848C533.868 81.9775 531.686 86.0984 530.955 89.9755C530.223 93.8526 527.321 92.6453 524.408 91.6703C521.494 90.6952 517.617 92.8775 515.922 96.5224C514.228 100.156 514.228 100.643 509.375 100.156C504.523 99.6682 503.072 99.912 501.61 102.826C500.159 105.739 500.275 105.368 500.275 105.368H561.879C561.879 105.368 562.238 98.9369 559.336 96.7546C556.423 94.5723 552.302 96.9984 550.12 95.7795C547.937 94.5723 547.45 91.4149 547.45 91.4149V91.4265Z" stroke="#13283D" stroke-miterlimit="10"/>
</g>
<g opacity="0.3">
<path d="M306.641 186.926C306.641 186.926 305.666 179.891 299.362 178.684C293.059 177.477 290.877 181.597 290.146 185.475C289.414 189.352 286.512 188.144 283.599 187.169C280.685 186.194 276.808 188.377 275.113 192.021C273.418 195.655 273.418 196.142 268.566 195.655C263.714 195.167 262.263 195.411 260.801 198.325C259.35 201.238 259.466 200.867 259.466 200.867H321.07C321.07 200.867 321.429 194.436 318.527 192.254C315.614 190.071 311.493 192.497 309.311 191.279C307.128 190.071 306.641 186.914 306.641 186.914V186.926Z" stroke="#13283D" stroke-miterlimit="10"/>
</g>
<g opacity="0.3">
<path d="M632.676 253.961C632.676 253.961 631.701 246.926 625.398 245.719C619.095 244.512 616.913 248.633 616.181 252.51C615.45 256.387 612.548 255.18 609.634 254.204C606.721 253.229 602.844 255.412 601.149 259.057C599.454 262.69 599.454 263.177 594.602 262.69C589.75 262.202 588.299 262.446 586.836 265.36C585.385 268.273 585.501 267.902 585.501 267.902H647.105C647.105 267.902 647.465 261.471 644.563 259.289C641.649 257.106 637.529 259.533 635.346 258.314C633.164 257.106 632.676 253.949 632.676 253.949V253.961Z" stroke="#13283D" stroke-miterlimit="10"/>
</g>
<g opacity="0.3">
<path d="M221.914 261.089C221.914 261.089 220.126 248.135 208.507 245.894C196.887 243.654 192.871 251.257 191.524 258.408C190.189 265.558 184.826 263.318 179.463 261.53C174.1 259.743 166.95 263.759 163.827 270.468C160.705 277.166 160.705 278.06 151.766 277.166C142.828 276.273 140.147 276.725 137.465 282.077C134.784 287.439 135.004 286.766 135.004 286.766H248.485C248.485 286.766 249.158 274.926 243.795 270.91C238.432 266.893 230.84 271.351 226.812 269.122C222.796 266.893 221.902 261.078 221.902 261.078L221.914 261.089Z" stroke="#13283D" stroke-miterlimit="10"/>
</g>
<path d="M147.576 470.927C150.675 472.274 158.244 472.111 158.244 472.111C158.325 472.111 156.619 467.155 156.468 466.853C154.808 463.382 149.549 457.636 145.278 458.217C142.201 458.634 140.483 461.711 141.18 464.613C141.888 467.573 144.929 469.778 147.564 470.927H147.576Z" fill="#13283D"/>
<path d="M150.188 492.856C153.403 493.32 160.148 491.37 160.693 491.207C161.761 494.992 163.166 498.787 164.791 502.549C165.72 504.696 166.718 506.843 167.751 508.968C167.136 508.062 166.579 507.261 166.486 507.157C163.967 504.243 157.385 500.099 153.415 501.782C150.559 503.001 149.712 506.426 151.151 509.037C152.614 511.707 156.131 513.031 158.975 513.437C161.866 513.855 167.658 512.299 169.179 511.87C169.585 512.682 169.98 513.495 170.386 514.307C172.348 518.208 174.31 522.085 176.12 525.939C176.759 527.297 177.339 528.667 177.931 530.025C177.386 529.224 176.91 528.551 176.828 528.458C174.31 525.544 167.728 521.4 163.758 523.083C160.902 524.302 160.055 527.726 161.494 530.338C162.957 533.008 166.474 534.331 169.318 534.738C172.069 535.144 177.432 533.751 179.255 533.252C179.812 534.668 180.369 536.084 180.845 537.477C181.147 538.441 181.507 539.334 181.762 540.321C182.029 541.285 182.296 542.248 182.563 543.188C183.004 545.034 183.468 546.926 183.863 548.737C184.142 549.991 184.385 551.198 184.629 552.405C184.002 551.047 182.737 548.4 182.598 548.191C180.555 544.93 174.669 539.834 170.49 540.902C167.484 541.668 166.137 544.93 167.159 547.727C168.204 550.583 171.477 552.417 174.228 553.264C177.258 554.193 183.956 553.345 184.803 553.229C185.209 555.237 185.581 557.188 185.894 559.033C186.138 560.403 186.359 561.715 186.556 562.98H189.237C188.982 561.575 188.704 560.101 188.402 558.569C188.007 556.538 187.531 554.367 187.032 552.15C187.531 551.952 190.398 550.792 192.929 549.375C195.134 551.767 200.787 554.564 201.519 554.924C200.753 556.816 199.987 558.65 199.232 560.368C198.837 561.274 198.454 562.144 198.071 562.992H200.915C201.136 562.446 201.368 561.924 201.588 561.367C202.378 559.451 203.179 557.385 203.991 555.249C204.804 555.423 211.444 556.77 214.531 556.073C217.341 555.435 220.73 553.856 221.995 551.082C223.226 548.366 222.123 545.022 219.175 544.024C215.089 542.654 208.843 547.298 206.557 550.397C206.417 550.583 205.175 552.73 204.421 554.088C204.746 553.218 205.071 552.37 205.396 551.476C206.046 549.7 206.65 547.901 207.3 545.974C207.578 545.034 207.868 544.082 208.159 543.119C208.46 542.167 208.669 541.134 208.925 540.135C209.482 537.802 209.935 535.411 210.329 532.985C211.885 533.554 217.457 535.492 220.335 535.283C223.203 535.086 226.801 534.03 228.461 531.476C230.086 528.98 229.506 525.498 226.743 524.081C222.912 522.108 216.04 525.753 213.313 528.469C213.138 528.643 211.409 530.803 210.469 532.021C210.701 530.57 210.933 529.108 211.119 527.634C211.653 523.362 212.059 519.009 212.477 514.679C212.604 513.356 212.744 512.032 212.883 510.709C213.44 510.918 219.999 513.356 223.226 513.135C226.093 512.938 229.692 511.881 231.351 509.328C232.977 506.832 232.396 503.349 229.633 501.933C225.803 499.96 218.931 503.605 216.203 506.321C215.994 506.53 213.498 509.653 212.906 510.477C213.22 507.563 213.545 504.661 213.997 501.817C214.601 497.894 215.425 494.075 216.482 490.43C216.737 490.523 223.574 493.111 226.882 492.879C229.75 492.682 233.348 491.625 235.008 489.072C236.633 486.576 236.053 483.093 233.29 481.677C229.459 479.704 222.587 483.349 219.86 486.065C219.651 486.274 216.958 489.64 216.516 490.29C216.586 490.07 216.621 489.838 216.691 489.629C217.875 485.752 219.511 482.153 221.206 478.856C222.181 476.941 223.237 475.154 224.282 473.447C225.513 474.062 231.131 476.79 234.137 476.906C237.016 477.022 240.708 476.372 242.635 474.016C244.527 471.718 244.329 468.189 241.741 466.471C238.142 464.079 230.922 466.958 227.904 469.35C227.741 469.477 226.221 470.986 225.13 472.112C225.617 471.346 226.105 470.557 226.592 469.825C228.391 467.109 230.214 464.73 231.839 462.64C232.779 461.456 233.638 460.411 234.462 459.436C235.971 459.413 242.077 459.227 244.747 457.974C247.347 456.755 250.331 454.468 250.957 451.496C251.573 448.583 249.773 445.541 246.686 445.216C242.402 444.752 237.306 450.626 235.739 454.143C235.6 454.445 234.033 459.448 234.114 459.448C234.114 459.448 234.184 459.448 234.207 459.448C233.395 460.365 232.536 461.363 231.618 462.478C229.935 464.544 228.066 466.877 226.198 469.57C224.317 472.252 222.355 475.223 220.579 478.531C218.78 481.851 217.074 485.427 215.773 489.35C215.762 489.397 215.75 489.443 215.739 489.489C215.762 488.224 215.704 484.695 215.669 484.417C215.17 480.598 211.978 473.505 207.729 472.727C204.676 472.159 202.088 474.562 201.844 477.533C201.6 480.563 203.794 483.604 205.941 485.52C208.356 487.679 215.077 489.768 215.611 489.942C214.415 493.68 213.487 497.627 212.779 501.655C212.372 503.965 212.024 506.298 211.711 508.643C211.699 507.552 211.676 506.576 211.653 506.437C211.153 502.618 207.961 495.526 203.713 494.748C200.66 494.179 198.071 496.582 197.827 499.542C197.584 502.572 199.778 505.613 201.925 507.528C204.107 509.467 209.795 511.371 211.304 511.858C211.188 512.764 211.072 513.657 210.968 514.563C210.445 518.893 209.958 523.211 209.331 527.436C209.11 528.922 208.843 530.385 208.588 531.847C208.576 530.872 208.553 530.06 208.53 529.932C208.031 526.113 204.839 519.02 200.59 518.243C197.537 517.674 194.949 520.077 194.705 523.048C194.461 526.078 196.655 529.119 198.803 531.035C200.88 532.892 206.116 534.691 207.915 535.272C207.601 536.757 207.288 538.243 206.917 539.671C206.638 540.635 206.441 541.586 206.116 542.55C205.802 543.502 205.5 544.454 205.199 545.382C204.549 547.158 203.898 549.004 203.214 550.722C202.749 551.918 202.297 553.055 201.832 554.204C202.064 552.73 202.459 549.817 202.471 549.573C202.529 547.019 201.623 542.852 199.812 539.938C199.812 539.555 199.812 539.184 199.743 538.812C199.267 535.864 196.504 533.681 193.498 534.482C189.33 535.597 186.684 542.91 186.486 546.752C186.475 546.984 186.626 549.457 186.742 551.012C186.533 550.107 186.335 549.224 186.115 548.296C185.674 546.45 185.186 544.628 184.664 542.654C184.385 541.714 184.095 540.762 183.805 539.799C183.538 538.847 183.132 537.86 182.795 536.885C181.971 534.633 181.031 532.393 180.021 530.152C181.634 529.769 187.345 528.307 189.632 526.554C191.919 524.801 194.333 521.934 194.31 518.893C194.287 515.909 191.884 513.332 188.796 513.669C184.513 514.133 180.787 520.959 180.009 524.732C179.963 524.964 179.707 527.738 179.591 529.259C178.976 527.912 178.372 526.577 177.711 525.242C175.795 521.388 173.741 517.535 171.698 513.692C171.071 512.52 170.467 511.336 169.852 510.152C170.432 510.024 177.246 508.434 179.823 506.472C182.11 504.719 184.525 501.852 184.501 498.811C184.478 495.827 182.075 493.25 178.988 493.587C174.704 494.051 170.978 500.877 170.2 504.65C170.142 504.928 169.782 508.921 169.736 509.931C168.389 507.331 167.066 504.731 165.87 502.107C164.211 498.497 162.783 494.864 161.657 491.242C161.924 491.184 169.051 489.559 171.686 487.539C173.973 485.786 176.387 482.919 176.364 479.878C176.341 476.895 173.938 474.318 170.85 474.654C166.567 475.119 162.841 481.944 162.063 485.717C162.005 486.019 161.622 490.302 161.599 491.08C161.529 490.859 161.436 490.65 161.378 490.43C160.229 486.541 159.602 482.641 159.196 478.949C158.952 476.813 158.848 474.747 158.778 472.739C160.136 472.577 166.335 471.752 168.9 470.197C171.361 468.711 174.077 466.122 174.391 463.093C174.693 460.133 172.592 457.3 169.492 457.289C165.174 457.289 160.728 463.662 159.544 467.318C159.474 467.515 159.045 469.616 158.755 471.149C158.743 470.243 158.708 469.303 158.708 468.444C158.708 465.182 158.917 462.199 159.126 459.552C159.254 458.055 159.405 456.697 159.556 455.431C160.798 454.572 165.789 451.055 167.321 448.536C168.819 446.075 170.038 442.535 168.923 439.703C167.832 436.928 164.663 435.384 161.901 436.812C158.07 438.797 157.06 446.505 157.698 450.301C157.756 450.626 159.196 455.664 159.265 455.617C159.265 455.617 159.324 455.571 159.335 455.571C159.161 456.79 158.999 458.09 158.848 459.529C158.581 462.176 158.314 465.159 158.232 468.432C158.151 471.706 158.151 475.258 158.488 479.007C158.824 482.757 159.358 486.692 160.45 490.673C160.461 490.72 160.484 490.766 160.496 490.813C159.823 489.745 157.826 486.831 157.64 486.622C155.121 483.709 148.54 479.565 144.57 481.248C141.714 482.467 140.867 485.891 142.306 488.503C143.769 491.173 147.286 492.484 150.13 492.902L150.188 492.856Z" fill="#13283D"/>
<path d="M224.143 472.588C224.212 472.635 225.524 467.562 225.571 467.226C226.105 463.407 224.886 455.734 220.997 453.853C218.199 452.507 215.077 454.132 214.055 456.929C213.011 459.785 214.334 463.302 215.901 465.717C217.735 468.549 224.143 472.588 224.143 472.588Z" fill="#13283D"/>
<path d="M499.857 461.758C499.857 461.758 503.537 490.314 505.986 500.68C508.436 511.046 517.49 548.377 517.618 551.952C517.745 555.528 509.051 563.305 505.244 565.522C501.436 567.739 506.277 569.364 510.142 568.935C514.008 568.505 520.206 566.195 521.065 565.267C521.681 564.605 523.05 563.769 523.782 563.34C524.083 563.166 524.269 563.061 524.269 563.061L524.049 565.162L528.494 564.118C528.494 564.118 528.866 557.536 528.135 553.67C527.403 549.816 526.997 546.543 526.997 546.543C526.997 546.543 525.825 486.843 525.651 481.77C525.476 476.697 525.244 470.139 525.244 470.139L499.857 461.758Z" fill="white" stroke="#13283D" stroke-linecap="round" stroke-linejoin="round"/>
<path d="M510.13 568.947C513.996 568.518 520.194 566.208 521.053 565.279C521.668 564.617 523.038 563.782 523.77 563.352C524.071 563.178 524.257 563.074 524.257 563.074L524.037 565.175L528.482 564.13C528.482 564.13 528.854 557.548 528.123 553.683C524.977 557.676 516.48 562.447 514.1 562.83C511.72 563.213 510.49 562.064 510.49 562.064L510.002 561.959C508.215 563.515 506.462 564.815 505.232 565.534C501.424 567.752 506.265 569.377 510.13 568.947Z" fill="#13283D" stroke="#13283D" stroke-linecap="round" stroke-linejoin="round"/>
<path d="M532.673 469.291C532.673 469.291 534.635 499.994 537.606 508.248C540.578 516.513 543.851 550.455 543.851 550.455C543.851 550.455 542.017 557.988 540.381 562.225C537.989 568.377 539.87 573.299 543.434 572.87C547.009 572.452 551.548 565.719 551.675 560.635C551.803 555.55 552.778 549.247 552.778 549.247C552.778 549.247 556.423 516.559 557.236 505.485C558.048 494.399 555.796 481.038 555.75 479.843C555.703 478.647 556.713 464.578 556.713 464.578L532.325 467.817L532.673 469.303V469.291Z" fill="white" stroke="#13283D" stroke-linecap="round" stroke-linejoin="round"/>
<path d="M551.861 557.152C550.073 560.228 547.31 564.082 544.629 564.175C542.238 564.256 541.472 561.9 541.274 559.683C540.972 560.6 540.671 561.471 540.38 562.237C537.989 568.389 539.87 573.311 543.433 572.881C547.009 572.463 551.547 565.731 551.675 560.646C551.698 559.52 551.768 558.325 551.861 557.152Z" fill="#13283D" stroke="#13283D" stroke-linecap="round" stroke-linejoin="round"/>
<path d="M497.721 366.189C497.721 366.189 490.014 380.188 486.868 399.121C483.722 418.054 497.222 463.639 497.222 463.639C497.222 463.639 508.006 473.122 527.426 473.343C546.847 473.564 557.166 469.628 557.166 469.628C557.166 469.628 566.569 421.188 564.386 400.096C562.204 379.016 548.762 365.098 548.762 365.098L499.625 362.974L497.71 366.177L497.721 366.189Z" fill="#13283D" stroke="#13283D" stroke-linecap="round" stroke-linejoin="round"/>
<path d="M464.186 366.025C464.186 366.025 454.156 368.393 452.462 368.916C450.767 369.438 447.11 371.748 446.391 373.176C445.659 374.604 442.699 378.748 442.815 382.172C442.931 385.597 442.978 386.989 443.918 386.955C444.858 386.92 445.996 384.087 446.913 383.739C447.83 383.391 454.911 380.977 456.153 380.93C457.395 380.884 459.728 380.802 462.479 379.467C465.23 378.133 468.55 375.056 468.55 375.056L465.741 365.816L464.197 366.025H464.186Z" fill="white" stroke="#13283D" stroke-linecap="round" stroke-linejoin="round"/>
<path d="M455.457 370.216C455.457 370.216 451.034 372.7 450.581 373.338C450.14 373.977 443.895 382.59 445.764 382.532C447.633 382.462 452.88 376.844 452.88 376.844C452.88 376.844 457.848 376.67 459.717 376.612C461.586 376.542 463.374 374.302 463.374 374.302" fill="white"/>
<path d="M455.457 370.216C455.457 370.216 451.034 372.7 450.581 373.338C450.14 373.977 443.895 382.59 445.764 382.532C447.633 382.462 452.88 376.844 452.88 376.844C452.88 376.844 457.848 376.67 459.717 376.612C461.586 376.542 463.374 374.302 463.374 374.302" stroke="#13283D" stroke-linecap="round" stroke-linejoin="round"/>
<path d="M525.998 280.776C525.998 280.776 498.603 290.481 497.628 293.8C496.653 297.12 487.495 348.881 487.495 348.881L463.988 365.387L468.074 378.017L494.355 367.616L486.566 395.615C486.566 395.615 501.784 403.113 518.604 403.996C535.424 404.878 554.194 399.12 556.725 398.296C559.256 397.484 566.453 394.674 566.453 394.674L557.781 344.261C557.781 344.261 568.054 303.772 568.31 300.475C568.565 297.178 569.714 288.391 569.68 287.288C569.645 286.197 546.463 280.997 546.463 280.997L526.033 280.765L525.998 280.776Z" fill="#92E3A9" stroke="#13283D" stroke-linecap="round" stroke-linejoin="round"/>
<path d="M509.318 391.599L508.146 397.797" stroke="#13283D" stroke-linecap="round" stroke-linejoin="round"/>
<path d="M514.553 286.812L515.087 324.214L508.842 333.547L513.694 368.417L510.13 387.269" stroke="#13283D" stroke-linecap="round" stroke-linejoin="round"/>
<path d="M512.266 331.77C512.266 331.77 539.278 306.233 547.392 298.293C555.506 290.353 559.325 284.746 559.325 284.746" stroke="#13283D" stroke-linecap="round" stroke-linejoin="round"/>
<path d="M502.701 303.482C502.701 303.482 496.084 323.054 497.698 327.743C499.323 332.433 500.96 348.069 500.96 348.069L494.343 367.64" stroke="#13283D" stroke-linecap="round" stroke-linejoin="round"/>
<path d="M527.624 241.379C527.624 241.379 522.505 244.606 521.727 247.032C520.938 249.458 520.589 251.861 518.883 253.01C517.177 254.159 513.462 253.637 513.729 255.146C513.996 256.666 516.283 259.847 516.283 259.847C516.283 259.847 515.11 270.12 515.192 272.291C515.273 274.461 518.581 275.878 520.102 275.82C521.622 275.762 524.002 275.251 524.002 275.251L524.699 282.842L516.921 322.31L546.417 281.008L544.514 276.284L545.164 269.946C545.164 269.946 547.741 262.668 545.512 254.914C543.283 247.148 539.232 243.375 535.007 240.682C530.781 238.001 527.624 241.379 527.624 241.379Z" fill="white" stroke="#13283D" stroke-linecap="round" stroke-linejoin="round"/>
<path d="M524.014 275.252L528.715 273.371L524.71 281.149L524.014 275.252Z" fill="#13283D" stroke="#13283D" stroke-linecap="round" stroke-linejoin="round"/>
<path d="M522.551 253.114C522.284 254.031 521.739 254.693 521.332 254.565C520.926 254.437 520.822 253.602 521.089 252.685C521.356 251.768 521.901 251.106 522.308 251.234C522.714 251.35 522.818 252.197 522.551 253.114Z" fill="#13283D"/>
<path d="M521.994 248.541C521.994 248.541 524.107 246.73 524.432 249.76" stroke="#13283D" stroke-linecap="round" stroke-linejoin="round"/>
<path d="M516.666 264.397C516.666 264.397 518.419 264.559 519.661 262.992" stroke="#13283D" stroke-linecap="round" stroke-linejoin="round"/>
<path d="M521.994 296.586L516.933 322.309L534.426 297.805L521.994 296.586Z" stroke="#13283D" stroke-linecap="round" stroke-linejoin="round"/>
<path d="M547.264 228.586C547.264 228.586 543.248 220.333 534.855 220.31C526.463 220.286 520.81 227.634 521.007 233.218C521.204 238.801 528.146 241.982 529.423 242.876C530.7 243.769 525.824 246.73 528.158 251.315C530.491 255.9 534.298 258.256 534.298 258.256C534.298 258.256 538.187 253.776 541.402 257.072C544.629 260.381 541.634 263.898 539.197 265.233C536.759 266.556 534.89 266.626 534.89 266.626C534.89 266.626 538.071 268.692 540.648 271.397C543.225 274.101 548.437 271.745 550.224 269.818C552.024 267.891 552.894 265.999 556.284 265.256C559.673 264.513 566.963 259.603 567.288 250.885C567.613 242.168 564.607 236.364 558.246 232.231C551.884 228.099 547.241 228.575 547.241 228.575L547.264 228.586Z" fill="#13283D" stroke="#13283D" stroke-linecap="round" stroke-linejoin="round"/>
<path d="M557.723 376.172L553.707 381.442C553.707 381.442 546.823 384.947 546.869 386.189C546.916 387.432 543.944 391.738 543.805 392.202C543.666 392.667 544.792 398.39 545.128 399.005C545.465 399.62 545.082 402.278 547.438 402.812C549.795 403.358 551.28 401.593 551.907 401.57C552.534 401.547 555.97 402.046 557.955 401.048C559.94 400.05 561.867 388.151 562.134 386.898C562.401 385.644 565.965 380.699 565.965 380.699L557.723 376.16V376.172Z" fill="white" stroke="#13283D" stroke-linecap="round" stroke-linejoin="round"/>
<path d="M544.606 392.806C544.606 392.806 544.919 392.945 545.442 394.489C545.964 396.021 545.128 399.016 545.128 399.016" stroke="#13283D" stroke-linecap="round" stroke-linejoin="round"/>
<path d="M558.71 308.832C558.71 308.832 555.158 317.144 555.564 318.223C555.97 319.303 568.6 341.695 568.6 341.695L556.678 376.774L567.126 383.344C567.126 383.344 587.475 338.851 588.171 337.736C588.868 336.622 573.174 293.719 573.174 293.719C573.174 293.719 572.198 287.566 569.645 287.288C567.079 287.009 562.657 285.709 562.657 285.709" fill="#92E3A9"/>
<path d="M558.71 308.832C558.71 308.832 555.158 317.144 555.564 318.223C555.97 319.303 568.6 341.695 568.6 341.695L556.678 376.774L567.126 383.344C567.126 383.344 587.475 338.851 588.171 337.736C588.868 336.622 573.174 293.719 573.174 293.719C573.174 293.719 572.198 287.566 569.645 287.288C567.079 287.009 562.657 285.709 562.657 285.709" stroke="#13283D" stroke-linecap="round" stroke-linejoin="round"/>
<path d="M369.812 559.37C369.812 559.37 380.515 565.395 383.858 566.277C387.201 567.171 393.667 568.506 395.222 568.506C396.778 568.506 397.892 569.179 397.892 570.734C397.892 572.29 396.557 574.298 395.884 574.751C395.211 575.192 378.936 578.535 374.711 578.535C370.485 578.535 356.649 583.445 353.085 582.992C349.521 582.551 348.175 581.437 347.734 579.649C347.293 577.862 348.407 569.84 348.407 569.84L369.812 559.358V559.37Z" fill="white" stroke="#13283D" stroke-linecap="round" stroke-linejoin="round"/>
<path d="M395.895 574.75C396.569 574.309 397.903 572.301 397.903 570.734C397.903 569.875 397.555 569.283 396.986 568.935C395.837 570.711 394.177 572.905 392.784 573.183C390.556 573.624 368.036 577.641 362.244 578.082C358.111 578.395 351.286 578.941 347.687 579.231C347.699 579.393 347.722 579.533 347.757 579.649C348.198 581.436 349.544 582.551 353.108 582.992C356.672 583.433 370.497 578.534 374.734 578.534C378.971 578.534 395.245 575.191 395.907 574.75H395.895Z" fill="white" stroke="#13283D" stroke-linecap="round" stroke-linejoin="round"/>
<path d="M263.911 566.927C263.911 566.927 263.703 569.167 264.585 572.29C265.479 575.412 269.263 580.543 269.042 583.213C268.822 585.883 267.707 586.777 260.568 586.336C253.429 585.894 245.861 585.894 243.179 580.543C240.51 575.192 246.743 565.604 246.743 565.604L263.9 566.927H263.911Z" fill="white" stroke="#13283D" stroke-linecap="round" stroke-linejoin="round"/>
<path d="M269.054 583.224C269.088 582.748 269.007 582.191 268.822 581.587C267.963 582.609 266.593 583.77 264.596 584.118C260.812 584.791 253 584.791 248.101 582.33C246.058 581.309 244.178 580.02 242.68 578.859C242.785 579.451 242.936 580.02 243.203 580.543C245.872 585.894 253.452 585.894 260.591 586.335C267.73 586.776 268.845 585.894 269.065 583.212L269.054 583.224Z" fill="white" stroke="#13283D" stroke-linecap="round" stroke-linejoin="round"/>
<path d="M252.907 389.695L262.019 487.621L248.74 550.618L246.082 557.072V565.801C246.082 565.801 246.836 565.418 251.015 567.322C255.194 569.214 262.402 567.322 262.402 567.322L263.923 566.939L267.719 555.934L268.473 547.959C268.473 547.959 291.62 483.442 292.769 478.508C293.907 473.575 296.414 431.612 296.414 431.612L295.903 421.002L330.716 483.825L345.516 555.18L343.241 559.358L348.174 571.501L370.566 559.73L369.046 552.138L365.633 545.684C365.633 545.684 358.041 467.121 356.904 465.6C355.766 464.08 323.507 389.695 323.507 389.695L319.328 372.991L252.907 389.695Z" fill="#13283D" stroke="#13283D" stroke-linecap="round" stroke-linejoin="round"/>
<path d="M318.922 279.337L328.174 305.049L292.967 284.155L305.353 324.783C305.353 324.783 349.846 327.104 351.007 324.005C351.843 321.776 338.052 291.63 330.287 274.961L318.934 279.337H318.922Z" fill="white" stroke="#13283D" stroke-linecap="round" stroke-linejoin="round"/>
<path d="M321.639 285.408L333.189 281.496" stroke="#13283D" stroke-linecap="round" stroke-linejoin="round"/>
<path d="M235.693 293.442L207.45 319.757L244.979 373.537C244.979 373.537 246.918 386.689 249.622 389.405C252.327 392.122 254.265 391.727 255.426 391.727C256.587 391.727 314.627 378.575 318.887 377.02C323.148 375.476 324.308 372.376 323.531 369.277C322.753 366.178 314.244 354.57 314.244 354.57L292.967 284.144H267.046L244.213 289.565L235.704 293.43L235.693 293.442Z" fill="white" stroke="#13283D" stroke-linecap="round" stroke-linejoin="round"/>
<path d="M254.753 303.888L264.91 311.434L271.585 377.309L284.644 386.306L289.867 371.796L268.102 310.563L266.651 294.602L259.396 291.99L254.753 303.888Z" fill="#F8CE6D" stroke="#13283D" stroke-linecap="round" stroke-linejoin="round"/>
<path d="M239.256 279.465C239.256 279.465 236.192 281.926 235.368 286.221C234.543 290.516 234.137 294.613 234.137 294.613L247.637 313.848C247.637 313.848 255.415 303.621 256.03 303.006C256.645 302.391 258.236 302.054 258.236 302.054C258.236 302.054 262.716 299.21 263.564 298.142C264.411 297.074 266.059 295.229 271.376 296.459C276.692 297.69 280.581 298.92 280.581 298.92C280.581 298.92 274.243 286.024 270.761 282.344C267.278 278.664 261.555 277.84 258.897 277.84C256.239 277.84 244.573 280.301 244.573 280.301L239.256 279.477V279.465Z" fill="white" stroke="#13283D" stroke-linecap="round" stroke-linejoin="round"/>
<path d="M250.772 235.215C250.772 235.215 261.439 247.659 263.564 247.659C265.688 247.659 271.028 246.951 271.028 249.435C271.028 251.919 270.319 253.347 270.319 253.347C270.319 253.347 274.94 266.499 276.007 270.41C277.075 274.322 267.476 276.458 267.476 276.458L262.856 277.874C262.856 277.874 264.991 294.938 263.564 298.13C262.147 301.334 258.236 302.042 258.236 302.042L239.755 281.786L239.396 277.166C239.396 277.166 219.848 259.754 220.208 257.259C220.567 254.763 250.772 235.226 250.772 235.226V235.215Z" fill="white" stroke="#13283D" stroke-linecap="round" stroke-linejoin="round"/>
<path d="M257.62 249.249C258.293 250.143 258.525 251.095 258.154 251.385C257.782 251.663 256.935 251.164 256.262 250.259C255.588 249.365 255.356 248.413 255.728 248.123C256.099 247.844 256.947 248.344 257.62 249.249Z" fill="#13283D"/>
<path d="M251.735 247.333C251.735 247.333 253.581 244.872 257.469 245.29Z" fill="#13283D"/>
<path d="M251.735 247.333C251.735 247.333 253.581 244.872 257.469 245.29" stroke="#13283D" stroke-width="2" stroke-linecap="round" stroke-linejoin="round"/>
<path d="M272.606 261.867L269.53 263.295" stroke="#13283D" stroke-linecap="round" stroke-linejoin="round"/>
<path d="M270.319 253.347C270.319 253.347 261.555 259.615 261.149 261.867C260.742 264.119 261.973 270.26 261.973 270.26C261.973 270.26 254.404 269.238 252.361 269.238C250.318 269.238 240.498 258.594 241.52 257.375C242.541 256.144 246.43 252.256 245.814 250.213C245.199 248.17 239.674 247.345 243.563 243.875C247.451 240.392 264.643 234.263 265.455 230.572C266.268 226.88 253.998 226.277 251.746 228.529C249.494 230.781 248.066 231.593 248.066 231.593C248.066 231.593 249.297 223.41 241.728 226.683C234.16 229.957 225.767 236.91 221.472 246.324C217.177 255.738 214.31 256.353 219.429 261.263C224.549 266.174 235.797 277.016 238.049 277.433C240.301 277.84 241.531 279.476 241.531 277.84C241.531 276.203 237.027 270.271 238.049 267.81C239.07 265.349 239.894 264.131 241.937 266.789C243.98 269.447 247.254 275.379 250.945 277.225C254.625 279.07 264.039 277.631 264.039 277.631C264.039 277.631 276.32 274.764 277.957 271.896C279.594 269.029 276.936 264.525 275.914 263.922C274.893 263.306 274.068 263.515 273.662 265.349C273.256 267.195 270.18 269.029 269.367 266.986C268.543 264.943 266.906 261.252 268.137 260.648C269.367 260.033 272.234 259.22 272.234 256.76C272.234 254.299 271.758 253.022 270.354 253.358L270.319 253.347Z" fill="#13283D" stroke="#13283D" stroke-linecap="round" stroke-linejoin="round"/>
<path d="M243.748 266.569C243.748 266.569 239.453 262.065 236.377 262.274C233.301 262.483 232.082 265.141 235.553 269.436C239.036 273.731 243.331 273.94 244.561 272.5C245.791 271.073 244.561 268.403 244.561 268.403" fill="white"/>
<path d="M243.748 266.569C243.748 266.569 239.453 262.065 236.377 262.274C233.301 262.483 232.082 265.141 235.553 269.436C239.036 273.731 243.331 273.94 244.561 272.5C245.791 271.073 244.561 268.403 244.561 268.403" stroke="#13283D" stroke-linecap="round" stroke-linejoin="round"/>
<path d="M305.329 276.621L207.88 412.296" stroke="#13283D" stroke-width="14" stroke-linecap="round" stroke-linejoin="round"/>
<path d="M356.974 204.722L305.33 276.622" stroke="#13283D" stroke-width="8" stroke-linecap="round" stroke-linejoin="round"/>
<path d="M405.948 55.4766C359.144 55.4766 321.209 93.4117 321.209 140.215C321.209 187.019 359.144 224.954 405.948 224.954C452.751 224.954 490.687 187.019 490.687 140.215C490.687 93.4117 452.751 55.4766 405.948 55.4766ZM405.948 213.346C365.563 213.346 332.817 180.6 332.817 140.215C332.817 99.8309 365.563 67.0846 405.948 67.0846C446.332 67.0846 479.078 99.8309 479.078 140.215C479.078 180.6 446.332 213.346 405.948 213.346Z" fill="#13283D" stroke="#13283D" stroke-linecap="round" stroke-linejoin="round"/>
<path d="M318.922 279.337L330.275 274.961C327.269 268.507 325.156 264.061 325.156 264.061C325.156 264.061 335.522 252.418 335.522 250.097C335.522 247.775 332.04 240.81 329.335 239.266C326.63 237.722 322.753 243.91 321.987 245.848C321.209 247.787 323.148 256.678 323.148 256.678L314.987 268.368L318.934 279.326L318.922 279.337Z" fill="white" stroke="#13283D" stroke-linecap="round" stroke-linejoin="round"/>
<path d="M323.206 244.501L326.723 255.262" stroke="#13283D" stroke-linecap="round" stroke-linejoin="round"/>
<path d="M325.551 240.786L330.449 252.522" stroke="#13283D" stroke-linecap="round" stroke-linejoin="round"/>
<path d="M328.487 239.022L333.769 250.77" stroke="#13283D" stroke-linecap="round" stroke-linejoin="round"/>
<path d="M207.531 319.57C207.531 319.57 213.184 399.979 215.75 401.419C218.315 402.87 226.719 397.159 226.719 397.159L234.357 358.144L207.531 319.57Z" fill="white" stroke="#13283D" stroke-linecap="round" stroke-linejoin="round"/>
<path d="M217.027 378.992L251.526 348.103L251.329 339.13L259.477 332.235C259.477 332.235 261.172 327.36 262.124 329.414C263.064 331.469 263.714 332.7 262.774 334.151C261.834 335.602 259.152 338.817 259.152 338.817L270.679 336.565C270.679 336.565 273.593 338.434 272.653 339.897C271.712 341.348 269.24 342.636 269.24 342.636L267.708 345.968C267.708 345.968 266.86 350.158 265.502 351.957C264.144 353.757 257.307 355.741 257.307 355.741C257.307 355.741 232.187 393.491 228.948 398.192C225.71 402.905 220.428 408.558 216.574 408.129C212.732 407.711 212.72 386.306 212.72 386.306" fill="white"/>
<path d="M217.027 378.992L251.526 348.103L251.329 339.13L259.477 332.235C259.477 332.235 261.172 327.36 262.124 329.414C263.064 331.469 263.714 332.7 262.774 334.151C261.834 335.602 259.152 338.817 259.152 338.817L270.679 336.565C270.679 336.565 273.593 338.434 272.653 339.897C271.712 341.348 269.24 342.636 269.24 342.636L267.708 345.968C267.708 345.968 266.86 350.158 265.502 351.957C264.144 353.757 257.307 355.741 257.307 355.741C257.307 355.741 232.187 393.491 228.948 398.192C225.71 402.905 220.428 408.558 216.574 408.129C212.732 407.711 212.72 386.306 212.72 386.306" stroke="#13283D" stroke-linecap="round" stroke-linejoin="round"/>
<path d="M270.679 336.565L259.152 338.817C259.152 338.817 261.834 335.602 262.774 334.151C263.714 332.7 263.064 331.457 262.124 329.414C261.184 327.36 259.477 332.235 259.477 332.235L251.328 339.13L251.526 348.103L246.534 352.573L254.637 359.758C256.285 357.285 257.306 355.741 257.306 355.741C257.306 355.741 264.144 353.757 265.502 351.957C266.86 350.158 267.707 345.968 267.707 345.968L269.24 342.636C269.24 342.636 271.712 341.348 272.652 339.897C273.593 338.446 270.679 336.565 270.679 336.565Z" fill="white" stroke="#13283D" stroke-linecap="round" stroke-linejoin="round"/>
<path d="M242.46 356.589L251.421 364.157" stroke="#13283D" stroke-linecap="round" stroke-linejoin="round"/>
<path d="M465.836 107.777C466.96 107.893 467.34 108.11 467.636 108.9C467.986 109.829 467.707 110.604 466.801 111.127C466.374 111.374 465.915 111.567 465.471 111.788C462.846 113.093 460.224 114.404 457.595 115.702C454.303 117.327 451.007 118.945 447.709 120.559C444.919 121.924 442.125 123.275 439.335 124.638C436.131 126.203 432.932 127.778 429.728 129.34C426.841 130.748 423.953 132.149 421.06 133.544C420.045 134.033 419.021 134.505 417.993 134.964C416.858 135.471 415.79 134.754 415.672 133.54C415.562 132.409 416.161 131.808 417.039 131.385C419.727 130.091 422.44 128.842 425.127 127.542C426.612 126.823 428.052 126.007 429.534 125.282C431.047 124.539 432.599 123.872 434.116 123.136C435.251 122.587 436.348 121.954 437.485 121.406C439.352 120.507 441.247 119.666 443.114 118.767C443.968 118.355 444.764 117.825 445.618 117.415C447.805 116.368 450.02 115.385 452.2 114.329C453.747 113.58 455.245 112.728 456.792 111.975C458.213 111.282 459.677 110.681 461.099 109.992C462.205 109.455 463.265 108.827 464.368 108.284C464.827 108.056 465.344 107.945 465.836 107.782V107.777Z" fill="#98CCEA"/>
<path d="M391.5 203.454C390.255 203.645 389.534 202.329 389.809 201.162C390.607 197.752 391.345 194.327 392.116 190.909C392.628 188.63 393.167 186.355 393.676 184.076C394.446 180.621 395.199 177.162 395.963 173.705C396.613 170.767 397.272 167.829 397.922 164.891C398.704 161.365 399.48 157.839 400.264 154.314C400.47 153.38 400.691 152.451 400.899 151.517C401.034 150.912 401.663 150.318 402.27 150.232C403.337 150.08 404.367 150.906 404.335 151.981C404.311 152.719 404.167 153.46 404.006 154.183C403.498 156.462 402.944 158.732 402.433 161.011C401.908 163.359 401.418 165.717 400.901 168.067C400.191 171.282 399.47 174.492 398.753 177.707C398.238 180.022 397.719 182.338 397.208 184.653C396.425 188.213 395.654 191.776 394.867 195.336C394.386 197.512 393.89 199.686 393.384 201.857C393.113 203.02 392.566 203.465 391.502 203.454H391.5Z" fill="#EF4E57"/>
<path d="M402.311 127.917C401.26 127.876 400.934 127.621 400.702 126.608C400.035 123.704 399.387 120.796 398.711 117.895C398.221 115.79 397.689 113.693 397.198 111.588C396.335 107.893 395.496 104.191 394.631 100.496C394.14 98.3905 393.61 96.2939 393.116 94.1908C392.745 92.605 392.425 91.0041 392.041 89.4204C391.457 87.0105 390.835 84.6091 390.24 82.2014C390.088 81.5833 389.983 80.9524 389.841 80.3301C389.582 79.1734 390.045 78.2485 391.004 78.0597C392.097 77.8451 393.004 78.1777 393.365 79.5769C394.056 82.2507 394.659 84.9482 395.29 87.6392C396.251 91.7444 397.198 95.8561 398.165 99.9613C399.043 103.685 399.947 107.404 400.824 111.127C401.897 115.68 402.972 120.234 404.005 124.799C404.131 125.359 404.421 125.917 404.185 126.563C403.827 127.552 403.331 127.962 402.311 127.923V127.917Z" fill="#34A54B"/>
<path d="M385.523 140.972C383.772 140.972 382.019 140.927 380.268 140.978C368.231 141.343 356.19 141.081 344.151 141.188C343.608 141.193 343.087 141.178 342.638 140.806C342.087 140.354 341.851 139.446 342.098 138.656C342.246 138.18 342.965 137.729 343.641 137.727C346.823 137.716 350.005 137.789 353.186 137.695C365.222 137.338 377.261 137.609 389.298 137.487C390.004 137.48 390.71 137.343 391.416 137.334C391.869 137.33 392.337 137.401 392.772 137.529C393.401 137.714 393.783 138.156 393.852 138.838C393.925 139.555 393.832 140.246 393.163 140.613C392.751 140.839 392.221 140.931 391.74 140.939C389.667 140.974 387.594 140.954 385.521 140.954V140.967L385.523 140.972Z" fill="#FBCF4B"/>
<path d="M393.316 135.244C392.955 135.13 392.58 135.051 392.238 134.894C390.292 133.987 388.35 133.07 386.418 132.135C384.923 131.409 383.483 130.564 381.948 129.935C380.53 129.353 379.212 128.577 377.82 127.978C375.081 126.802 372.42 125.476 369.729 124.205C368.197 123.48 366.699 122.679 365.169 121.948C364.141 121.456 363.075 121.049 362.043 120.561C358.972 119.113 355.909 117.645 352.843 116.188C352.317 115.939 351.74 115.821 351.334 115.317C350.828 114.684 350.733 113.572 351.225 112.845C351.626 112.252 352.532 112.046 353.341 112.394C354.214 112.772 355.081 113.16 355.939 113.57C359.768 115.4 363.585 117.248 367.416 119.072C371.498 121.016 375.588 122.939 379.676 124.875C382.549 126.235 385.418 127.6 388.292 128.959C390.079 129.804 391.871 130.641 393.661 131.48C393.886 131.585 394.125 131.669 394.335 131.798C395.08 132.253 395.457 133.087 395.236 133.791C394.964 134.665 394.155 135.313 393.316 135.244Z" fill="#BD9E34"/>
<path d="M458.284 165.969C457.206 165.918 456.369 165.345 455.485 164.933C454.724 164.576 453.992 164.156 453.234 163.789C452.007 163.194 450.771 162.617 449.537 162.038C447.221 160.95 444.904 159.866 442.588 158.778C441.228 158.139 439.869 157.49 438.509 156.847C436.989 156.128 435.468 155.411 433.951 154.69C432.622 154.059 431.298 153.424 429.972 152.791C428.455 152.068 426.935 151.344 425.418 150.623C424.06 149.977 422.699 149.336 421.339 148.692C420.137 148.123 418.929 147.561 417.731 146.982C417.292 146.769 416.854 146.54 416.45 146.267C415.807 145.834 415.497 144.894 415.716 144.179C415.867 143.69 416.882 142.941 417.45 142.917C417.583 142.913 417.727 142.958 417.849 143.016C421.06 144.537 424.266 146.068 427.474 147.591C430.341 148.954 433.21 150.312 436.079 151.675C438.914 153.023 441.749 154.377 444.584 155.722C447.483 157.098 450.384 158.471 453.288 159.84C455.2 160.742 457.131 161.606 459.03 162.533C460.35 163.177 460.541 164.639 459.423 165.549C459.127 165.791 458.666 165.832 458.279 165.965L458.284 165.969Z" fill="#BDB2AC"/>
<path d="M413.487 130.456C412.369 130.417 411.723 129.563 411.95 128.448C412.081 127.808 412.356 127.274 412.802 126.78C413.459 126.055 414.04 125.261 414.641 124.488C415.545 123.327 416.427 122.153 417.336 120.997C418.289 119.784 419.264 118.587 420.225 117.381C421.491 115.788 422.757 114.196 424.017 112.6C424.624 111.831 425.21 111.048 425.817 110.28C426.556 109.344 427.307 108.417 428.049 107.484C428.661 106.718 429.272 105.951 429.877 105.181C430.852 103.943 431.826 102.702 432.794 101.46C433.481 100.58 434.148 99.6852 434.843 98.8118C435.566 97.9019 436.324 97.0199 437.047 96.11C437.766 95.2066 438.463 94.2838 439.165 93.3654C440.024 92.2409 441.393 92.2237 442.283 93.3353C442.717 93.8761 442.652 94.9019 442.187 95.4899C440.987 97.0049 439.809 98.5393 438.609 100.054C437.378 101.61 436.122 103.149 434.89 104.707C433.485 106.484 432.096 108.273 430.697 110.057C429.493 111.589 428.285 113.117 427.081 114.649C425.834 116.235 424.596 117.829 423.343 119.409C422.109 120.965 420.849 122.499 419.62 124.059C418.216 125.838 416.824 127.626 415.448 129.424C414.942 130.085 414.371 130.557 413.482 130.46L413.487 130.456Z" fill="#F68D25"/>
<path d="M369.102 183.227C369.039 182.721 369.226 182.255 369.57 181.804C370.527 180.549 371.353 179.176 372.417 178.023C373.301 177.064 374.001 175.976 374.866 175.008C375.804 173.959 376.619 172.8 377.49 171.69C378.402 170.525 379.312 169.36 380.226 168.197C381.177 166.986 382.128 165.778 383.08 164.568C383.973 163.433 384.864 162.295 385.761 161.164C386.716 159.961 387.686 158.767 388.639 157.561C389.6 156.347 390.546 155.121 391.506 153.905C392.403 152.767 393.317 151.645 394.201 150.499C394.692 149.864 395.085 149.145 395.617 148.548C396.458 147.606 397.931 147.379 398.8 148.643C399.061 149.025 399.076 150.083 398.78 150.473C397.817 151.739 396.838 152.995 395.855 154.248C394.894 155.476 393.924 156.697 392.954 157.918C391.722 159.471 390.486 161.021 389.259 162.579C388.119 164.025 386.995 165.484 385.859 166.933C384.658 168.465 383.447 169.989 382.244 171.519C381.016 173.077 379.795 174.637 378.563 176.19C377.331 177.744 376.091 179.291 374.855 180.843C373.949 181.98 373.048 183.12 372.143 184.257C371.621 184.914 370.913 185.066 370.145 184.897C369.381 184.727 369.119 184.27 369.102 183.229V183.227Z" fill="#74C1B8"/>
<path d="M417.057 190.978C415.964 190.967 415.67 190.636 415.466 189.576C415.209 188.235 414.829 186.915 414.522 185.583C414.318 184.694 414.224 183.774 413.954 182.907C413.11 180.224 412.842 177.4 411.9 174.744C411.803 172.898 411.063 171.194 410.737 169.394C410.445 167.776 409.765 166.22 409.556 164.6C409.32 162.769 408.664 161.059 408.37 159.25C408.119 157.698 407.597 156.19 407.23 154.655C407.018 153.769 406.816 152.872 406.711 151.968C406.574 150.788 407.72 149.865 408.996 150.286C409.685 150.511 410.138 151.035 410.312 151.715C410.709 153.28 411.05 154.857 411.404 156.43C411.844 158.381 412.263 160.336 412.711 162.284C413.05 163.754 413.428 165.213 413.775 166.681C414.211 168.525 414.63 170.372 415.063 172.216C415.415 173.718 415.782 175.216 416.132 176.72C416.569 178.6 416.986 180.482 417.428 182.362C417.797 183.933 418.192 185.497 418.563 187.066C418.7 187.645 418.812 188.231 418.926 188.817C419.048 189.452 418.825 190.006 418.486 190.518C418.138 191.042 417.582 190.978 417.054 190.978H417.057Z" fill="#F5989C"/>
<path d="M435.273 140.766C429.944 140.766 424.616 140.766 419.285 140.766C418.963 140.766 418.641 140.771 418.319 140.751C417.457 140.696 417.055 140.299 416.991 139.419C416.967 139.099 416.972 138.773 417.01 138.457C417.094 137.773 417.504 137.369 418.184 137.324C419.319 137.249 420.457 137.157 421.594 137.153C432.217 137.118 442.837 137.101 453.46 137.08C453.816 137.08 454.187 137.045 454.528 137.125C455.35 137.316 455.895 138.133 455.822 138.977C455.747 139.867 455.058 140.548 454.135 140.571C451.638 140.636 449.14 140.702 446.642 140.719C442.85 140.743 439.06 140.726 435.268 140.726V140.766H435.273Z" fill="#4476A5"/>
<path d="M373.833 102.112C373.861 101.865 373.837 101.597 373.931 101.378C374.107 100.966 374.251 100.483 374.811 100.416C375.637 100.316 376.468 100.24 377.077 100.985C377.998 102.112 378.901 103.249 379.811 104.382C380.897 105.734 381.985 107.084 383.065 108.44C384.099 109.741 385.114 111.058 386.157 112.354C387.157 113.599 388.187 114.818 389.189 116.06C390.614 117.824 392.022 119.601 393.447 121.365C394.449 122.606 395.464 123.835 396.475 125.069C397.149 125.891 397.835 126.704 398.5 127.537C399.226 128.443 399.067 129.612 398.153 130.256C397.389 130.795 396.131 130.535 395.541 129.767C394.859 128.878 394.125 128.031 393.425 127.155C392.614 126.14 391.822 125.11 391.007 124.099C390.324 123.252 389.612 122.432 388.927 121.584C388.112 120.573 387.322 119.541 386.507 118.53C385.824 117.685 385.114 116.861 384.432 116.015C383.616 115.005 382.824 113.975 382.011 112.96C381.354 112.138 380.676 111.333 380.017 110.513C378.874 109.09 377.747 107.655 376.597 106.238C375.889 105.367 375.167 104.504 374.425 103.663C374.026 103.21 373.813 102.719 373.831 102.114L373.833 102.112Z" fill="#69B464"/>
<path d="M368.11 159.218C367.063 159.201 366.355 158.641 366.17 157.875C365.968 157.034 366.299 156.158 367.035 155.793C369.376 154.628 371.735 153.497 374.08 152.343C378.393 150.22 382.681 148.046 387.024 145.988C388.93 145.085 390.834 144.175 392.731 143.254C393.625 142.821 394.707 143.48 395.177 144.224C395.598 144.888 395.301 145.857 394.555 146.345C394.05 146.673 393.518 146.963 392.977 147.227C390.029 148.677 387.072 150.113 384.119 151.557C379.076 154.021 374.033 156.489 368.986 158.944C368.644 159.109 368.256 159.173 368.11 159.218Z" fill="#1C9D9C"/>
<path d="M429.516 170.566C428.69 170.551 428.164 170.338 427.739 169.75C427.044 168.787 426.25 167.894 425.514 166.961C424.799 166.055 424.119 165.126 423.398 164.227C422.672 163.321 421.906 162.45 421.179 161.549C420.411 160.598 419.674 159.619 418.906 158.667C418.179 157.765 417.413 156.894 416.687 155.988C415.616 154.651 414.569 153.293 413.505 151.952C413.134 151.486 412.726 151.048 412.357 150.581C411.81 149.887 411.938 148.641 412.597 148.076C413.34 147.439 414.292 147.417 415.001 148.113C415.58 148.684 416.091 149.327 416.604 149.96C418.365 152.132 420.121 154.306 421.863 156.493C423.43 158.456 424.962 160.446 426.535 162.403C427.889 164.087 429.278 165.742 430.653 167.409C431.555 168.501 431.286 169.944 430.085 170.424C429.859 170.514 429.61 170.542 429.516 170.566Z" fill="#7E7272"/>
<path d="M408.203 127.878C407.288 128.044 406.535 127.245 406.668 126.318C406.758 125.69 406.795 125.05 406.924 124.43C407.256 122.848 407.64 121.278 407.986 119.698C408.496 117.363 408.992 115.026 409.497 112.689C409.638 112.037 409.78 111.385 409.928 110.734C410.351 108.885 410.776 107.037 411.207 105.189C411.318 104.715 411.848 104.297 412.366 104.267C412.861 104.236 413.359 104.191 413.816 104.475C414.452 104.867 414.786 105.616 414.615 106.421C414.327 107.76 414.001 109.093 413.709 110.432C413.359 112.046 413.037 113.666 412.683 115.277C412.503 116.099 412.261 116.908 412.08 117.732C411.7 119.447 411.353 121.168 410.973 122.883C410.692 124.151 410.413 125.419 410.078 126.672C409.851 127.522 409.203 127.898 408.2 127.878H408.203Z" fill="#FCBB71"/>
</svg>
